<?xml version="1.0" standalone="no"?>
<!DOCTYPE svg PUBLIC "-//W3C//DTD SVG 20010904//EN"
 "http://www.w3.org/TR/2001/REC-SVG-20010904/DTD/svg10.dtd">
<svg version="1.0" xmlns="http://www.w3.org/2000/svg"
 width="1280.000000pt" height="1293.000000pt" viewBox="0 0 1280.000000 1293.000000"
 preserveAspectRatio="xMidYMid meet">

<g transform="translate(0.000000,1293.000000) scale(0.100000,-0.100000)"
fill="#000000" stroke="none">
<path d="M5945 12923 c-212 -11 -625 -56 -815 -89 -1193 -207 -2185 -688
-3070 -1489 -628 -569 -1135 -1263 -1474 -2020 -298 -664 -477 -1383 -556
-2240 -18 -186 -24 -867 -11 -1090 35 -589 126 -1104 285 -1610 358 -1145
1078 -2189 2071 -3001 886 -726 1916 -1172 3052 -1323 557 -74 1269 -74 1825
0 530 70 1083 217 1568 416 186 76 546 255 715 353 796 467 1520 1125 2084
1895 417 569 768 1292 950 1960 141 515 215 1043 228 1620 27 1294 -260 2430
-873 3447 -303 503 -620 898 -1089 1356 -748 732 -1540 1216 -2510 1533 -224
73 -643 170 -925 213 -332 51 -705 77 -1092 74 -167 -1 -330 -3 -363 -5z m995
-383 c627 -63 1174 -184 1601 -356 171 -68 461 -215 573 -289 212 -141 372
-306 457 -469 64 -121 80 -183 86 -326 5 -107 2 -138 -16 -210 -40 -159 -107
-274 -241 -414 -339 -354 -991 -636 -1820 -790 -582 -108 -1432 -125 -2082
-41 -561 72 -1066 216 -1493 425 -598 292 -892 648 -861 1045 8 111 29 185 80
290 99 200 292 386 572 551 124 73 347 179 499 238 66 26 129 51 140 56 13 6
-20 9 -100 10 l-120 1 60 20 c429 140 1065 252 1585 279 267 14 847 3 1080
-20z m-1261 -3745 c38 -19 76 -66 91 -109 17 -53 6 -839 -14 -927 -42 -191
-180 -298 -293 -229 -56 34 -77 96 -99 289 -34 310 -9 576 76 781 74 178 151
241 239 195z m-2505 -865 c52 -46 60 -83 58 -250 -5 -376 -47 -684 -111 -807
-69 -137 -212 -135 -273 4 -43 98 -60 377 -33 575 14 111 55 284 79 343 44
104 119 165 203 165 33 0 50 -7 77 -30z m3961 -784 c80 -37 139 -118 187 -256
43 -127 134 -702 164 -1046 10 -109 19 -201 21 -203 2 -3 52 43 111 101 486
476 1267 862 2022 998 574 103 1039 -13 1302 -324 66 -79 138 -215 169 -321
98 -341 -62 -696 -422 -932 -189 -124 -386 -194 -809 -288 -347 -77 -578 -132
-1249 -301 -315 -79 -603 -147 -640 -150 -56 -5 -72 -2 -111 18 -59 30 -93 81
-86 128 7 49 96 131 171 159 66 25 112 27 162 6 19 -8 59 -15 87 -15 60 0
1910 448 2066 500 408 136 620 360 620 654 0 109 -18 186 -65 275 -98 187
-257 308 -484 369 -88 23 -112 26 -291 25 -228 0 -372 -21 -656 -97 -574 -153
-1014 -363 -1389 -663 -101 -81 -306 -286 -380 -380 -22 -27 -55 -61 -72 -74
-32 -24 -32 -24 -33 -115 0 -50 3 -125 6 -167 l7 -75 76 57 c233 176 549 355
831 469 166 67 293 109 551 181 226 63 399 120 460 152 97 49 185 44 215 -13
30 -58 -7 -130 -98 -188 -69 -45 -148 -72 -376 -130 -245 -61 -546 -162 -762
-255 -279 -119 -574 -296 -745 -446 -38 -33 -88 -71 -110 -85 l-41 -23 -12
-333 c-25 -689 -82 -1162 -189 -1558 -144 -537 -418 -976 -772 -1239 -184
-136 -348 -210 -591 -267 -106 -25 -420 -30 -560 -9 -718 106 -1442 571 -2084
1338 -509 609 -1010 1492 -1241 2192 -83 252 -165 601 -165 704 0 42 5 57 25
76 46 47 115 23 154 -53 10 -21 44 -122 75 -226 32 -104 89 -280 128 -390 367
-1046 805 -1781 1438 -2417 503 -505 1030 -840 1510 -960 505 -127 916 -38
1269 274 324 287 531 705 645 1302 88 461 138 1086 137 1710 -1 490 -24 849
-87 1320 -36 276 -100 640 -120 681 -19 39 -43 54 -126 78 -71 20 -98 51 -98
113 0 124 122 182 255 119z"/>
<path d="M6130 11864 c-229 -10 -537 -53 -694 -99 -253 -73 -395 -169 -427
-287 -25 -96 48 -206 182 -273 67 -34 238 -85 286 -85 13 0 21 -4 18 -10 -3
-5 -23 -10 -43 -10 -98 0 -320 -61 -417 -115 -66 -37 -124 -92 -149 -142 -40
-80 -4 -210 77 -277 277 -226 1034 -340 1868 -281 453 32 759 105 942 225 114
74 160 147 160 255 1 102 -54 171 -188 235 -101 48 -319 100 -421 100 -52 0
-49 17 5 24 87 11 204 46 279 83 114 56 172 136 172 237 0 198 -311 339 -885
401 -137 15 -595 26 -765 19z m458 -304 c187 -20 294 -70 308 -145 13 -74 -51
-126 -197 -162 -104 -25 -488 -26 -599 -1 -150 33 -210 76 -210 147 0 64 46
103 164 138 88 27 381 39 534 23z m72 -610 c111 -14 197 -48 247 -96 37 -35
43 -46 43 -83 0 -77 -74 -122 -256 -156 -121 -23 -535 -17 -639 9 -106 27
-173 62 -192 101 -48 102 63 195 270 225 76 11 440 11 527 0z"/>
</g>
</svg>
